<svg width="331" height="87" viewBox="0 0 331 87" fill="none" xmlns="http://www.w3.org/2000/svg">
<path d="M3 4C3 1.79086 4.79086 0 7 0H87V80C87 82.2091 85.2091 84 83 84H7C4.79086 84 3 82.2091 3 80V4Z" fill="#006EF9"/>
<path d="M112.679 53.9062C112.546 52.6657 111.988 51.6998 111.003 51.0085C110.027 50.3172 108.759 49.9716 107.196 49.9716C106.098 49.9716 105.155 50.1373 104.369 50.4688C103.583 50.8002 102.982 51.25 102.565 51.8182C102.149 52.3864 101.936 53.035 101.926 53.7642C101.926 54.3703 102.063 54.8958 102.338 55.3409C102.622 55.786 103.006 56.1648 103.489 56.4773C103.972 56.7803 104.507 57.036 105.094 57.2443C105.681 57.4527 106.273 57.6278 106.869 57.7699L109.597 58.4517C110.695 58.7074 111.751 59.053 112.764 59.4886C113.787 59.9242 114.701 60.4735 115.506 61.1364C116.32 61.7992 116.964 62.5994 117.438 63.5369C117.911 64.4744 118.148 65.5729 118.148 66.8324C118.148 68.5369 117.712 70.0379 116.841 71.3352C115.97 72.6231 114.71 73.6316 113.062 74.3608C111.424 75.0805 109.44 75.4403 107.111 75.4403C104.848 75.4403 102.883 75.09 101.216 74.3892C99.5587 73.6884 98.2614 72.6657 97.3239 71.321C96.3958 69.9763 95.8939 68.3381 95.8182 66.4062H101.003C101.079 67.4195 101.391 68.2623 101.94 68.9347C102.49 69.607 103.205 70.1089 104.085 70.4403C104.975 70.7718 105.97 70.9375 107.068 70.9375C108.214 70.9375 109.218 70.767 110.08 70.4261C110.951 70.0758 111.633 69.5928 112.125 68.9773C112.617 68.3523 112.868 67.6231 112.878 66.7898C112.868 66.0322 112.646 65.4072 112.21 64.9148C111.775 64.4129 111.164 63.9962 110.378 63.6648C109.601 63.3239 108.692 63.0208 107.651 62.7557L104.341 61.9034C101.945 61.2879 100.051 60.3551 98.6591 59.1051C97.2765 57.8456 96.5852 56.1742 96.5852 54.0909C96.5852 52.3769 97.0492 50.8759 97.9773 49.5881C98.9148 48.3002 100.188 47.3011 101.798 46.5909C103.408 45.8712 105.231 45.5114 107.267 45.5114C109.331 45.5114 111.14 45.8712 112.693 46.5909C114.256 47.3011 115.482 48.2907 116.372 49.5597C117.262 50.8191 117.722 52.268 117.75 53.9062H112.679ZM122.619 75V53.1818H127.761V75H122.619ZM125.204 50.0852C124.389 50.0852 123.689 49.8153 123.102 49.2756C122.514 48.7263 122.221 48.0682 122.221 47.3011C122.221 46.5246 122.514 45.8665 123.102 45.3267C123.689 44.7775 124.389 44.5028 125.204 44.5028C126.028 44.5028 126.728 44.7775 127.306 45.3267C127.893 45.8665 128.187 46.5246 128.187 47.3011C128.187 48.0682 127.893 48.7263 127.306 49.2756C126.728 49.8153 126.028 50.0852 125.204 50.0852ZM142.537 83.6364C140.69 83.6364 139.104 83.3854 137.778 82.8835C136.453 82.3911 135.387 81.7282 134.582 80.8949C133.777 80.0616 133.219 79.1383 132.906 78.125L137.537 77.0028C137.745 77.429 138.048 77.8504 138.446 78.267C138.844 78.6932 139.379 79.0436 140.051 79.3182C140.733 79.6023 141.59 79.7443 142.622 79.7443C144.08 79.7443 145.288 79.3892 146.244 78.679C147.201 77.9782 147.679 76.8229 147.679 75.2131V71.0795H147.423C147.158 71.6098 146.77 72.1544 146.259 72.7131C145.757 73.2718 145.089 73.7405 144.256 74.1193C143.432 74.4981 142.395 74.6875 141.145 74.6875C139.469 74.6875 137.949 74.2945 136.585 73.5085C135.231 72.7131 134.152 71.5294 133.347 69.9574C132.551 68.3759 132.153 66.3968 132.153 64.0199C132.153 61.6241 132.551 59.6023 133.347 57.9545C134.152 56.2973 135.236 55.0426 136.599 54.1903C137.963 53.3286 139.483 52.8977 141.159 52.8977C142.438 52.8977 143.489 53.1155 144.312 53.5511C145.146 53.9773 145.809 54.4934 146.301 55.0994C146.794 55.696 147.168 56.2595 147.423 56.7898H147.707V53.1818H152.778V75.3551C152.778 77.2206 152.333 78.7642 151.443 79.9858C150.553 81.2074 149.336 82.1212 147.793 82.7273C146.249 83.3333 144.497 83.6364 142.537 83.6364ZM142.58 70.6534C143.669 70.6534 144.597 70.3883 145.364 69.858C146.131 69.3277 146.713 68.5653 147.111 67.571C147.509 66.5767 147.707 65.3835 147.707 63.9915C147.707 62.6184 147.509 61.4157 147.111 60.3835C146.723 59.3513 146.145 58.5511 145.378 57.983C144.62 57.4053 143.688 57.1165 142.58 57.1165C141.434 57.1165 140.477 57.4148 139.71 58.0114C138.943 58.608 138.366 59.4271 137.977 60.4688C137.589 61.5009 137.395 62.6752 137.395 63.9915C137.395 65.3267 137.589 66.4962 137.977 67.5C138.375 68.4943 138.957 69.2708 139.724 69.8295C140.501 70.3788 141.453 70.6534 142.58 70.6534ZM163.19 62.2159V75H158.048V53.1818H162.963V56.8892H163.219C163.721 55.6676 164.521 54.697 165.619 53.9773C166.727 53.2576 168.096 52.8977 169.724 52.8977C171.23 52.8977 172.542 53.2197 173.659 53.8636C174.786 54.5076 175.657 55.4403 176.273 56.6619C176.898 57.8835 177.205 59.3655 177.196 61.108V75H172.054V61.9034C172.054 60.4451 171.675 59.304 170.918 58.4801C170.17 57.6562 169.133 57.2443 167.807 57.2443C166.907 57.2443 166.107 57.4432 165.406 57.8409C164.715 58.2292 164.17 58.7926 163.773 59.5312C163.384 60.2699 163.19 61.1648 163.19 62.2159ZM188.702 75.4403C187.319 75.4403 186.074 75.1941 184.966 74.7017C183.867 74.1998 182.996 73.4612 182.352 72.4858C181.718 71.5104 181.401 70.3078 181.401 68.8778C181.401 67.6468 181.628 66.6288 182.082 65.8239C182.537 65.0189 183.157 64.375 183.943 63.892C184.729 63.4091 185.615 63.0445 186.599 62.7983C187.594 62.5426 188.621 62.358 189.682 62.2443C190.96 62.1117 191.997 61.9934 192.793 61.8892C193.588 61.7756 194.166 61.6051 194.526 61.3778C194.895 61.1411 195.08 60.7765 195.08 60.2841V60.1989C195.08 59.1288 194.762 58.3002 194.128 57.7131C193.493 57.1259 192.58 56.8324 191.386 56.8324C190.127 56.8324 189.128 57.107 188.389 57.6562C187.66 58.2055 187.168 58.8542 186.912 59.6023L182.111 58.9205C182.49 57.5947 183.115 56.4867 183.986 55.5966C184.857 54.697 185.922 54.0246 187.182 53.5795C188.441 53.125 189.833 52.8977 191.358 52.8977C192.409 52.8977 193.455 53.0208 194.497 53.267C195.539 53.5133 196.491 53.9205 197.352 54.4886C198.214 55.0473 198.905 55.8097 199.426 56.7756C199.956 57.7415 200.222 58.9489 200.222 60.3977V75H195.278V72.0028H195.108C194.795 72.6089 194.355 73.1771 193.787 73.7074C193.228 74.2282 192.523 74.6496 191.67 74.9716C190.828 75.2841 189.838 75.4403 188.702 75.4403ZM190.037 71.6619C191.069 71.6619 191.964 71.4583 192.722 71.0511C193.479 70.6345 194.062 70.0852 194.469 69.4034C194.885 68.7216 195.094 67.9782 195.094 67.1733V64.6023C194.933 64.7348 194.658 64.858 194.27 64.9716C193.891 65.0852 193.465 65.1847 192.991 65.2699C192.518 65.3551 192.049 65.4309 191.585 65.4972C191.121 65.5634 190.719 65.6203 190.378 65.6676C189.611 65.7718 188.924 65.9422 188.318 66.179C187.712 66.4157 187.234 66.7472 186.884 67.1733C186.533 67.59 186.358 68.1297 186.358 68.7926C186.358 69.7396 186.704 70.4545 187.395 70.9375C188.086 71.4205 188.967 71.6619 190.037 71.6619ZM210.534 45.9091V75H205.392V45.9091H210.534ZM215.822 75V53.1818H220.964V75H215.822ZM218.407 50.0852C217.593 50.0852 216.892 49.8153 216.305 49.2756C215.718 48.7263 215.424 48.0682 215.424 47.3011C215.424 46.5246 215.718 45.8665 216.305 45.3267C216.892 44.7775 217.593 44.5028 218.407 44.5028C219.231 44.5028 219.932 44.7775 220.509 45.3267C221.096 45.8665 221.39 46.5246 221.39 47.3011C221.39 48.0682 221.096 48.7263 220.509 49.2756C219.932 49.8153 219.231 50.0852 218.407 50.0852ZM231.393 62.2159V75H226.251V53.1818H231.166V56.8892H231.422C231.924 55.6676 232.724 54.697 233.822 53.9773C234.93 53.2576 236.299 52.8977 237.928 52.8977C239.433 52.8977 240.745 53.2197 241.862 53.8636C242.989 54.5076 243.86 55.4403 244.476 56.6619C245.101 57.8835 245.409 59.3655 245.399 61.108V75H240.257V61.9034C240.257 60.4451 239.878 59.304 239.121 58.4801C238.373 57.6562 237.336 57.2443 236.01 57.2443C235.11 57.2443 234.31 57.4432 233.609 57.8409C232.918 58.2292 232.374 58.7926 231.976 59.5312C231.588 60.2699 231.393 61.1648 231.393 62.2159ZM260.115 83.6364C258.268 83.6364 256.682 83.3854 255.357 82.8835C254.031 82.3911 252.965 81.7282 252.161 80.8949C251.356 80.0616 250.797 79.1383 250.484 78.125L255.115 77.0028C255.323 77.429 255.626 77.8504 256.024 78.267C256.422 78.6932 256.957 79.0436 257.629 79.3182C258.311 79.6023 259.168 79.7443 260.2 79.7443C261.659 79.7443 262.866 79.3892 263.822 78.679C264.779 77.9782 265.257 76.8229 265.257 75.2131V71.0795H265.001C264.736 71.6098 264.348 72.1544 263.837 72.7131C263.335 73.2718 262.667 73.7405 261.834 74.1193C261.01 74.4981 259.973 74.6875 258.723 74.6875C257.047 74.6875 255.527 74.2945 254.163 73.5085C252.809 72.7131 251.73 71.5294 250.925 69.9574C250.129 68.3759 249.732 66.3968 249.732 64.0199C249.732 61.6241 250.129 59.6023 250.925 57.9545C251.73 56.2973 252.814 55.0426 254.178 54.1903C255.541 53.3286 257.061 52.8977 258.737 52.8977C260.016 52.8977 261.067 53.1155 261.891 53.5511C262.724 53.9773 263.387 54.4934 263.879 55.0994C264.372 55.696 264.746 56.2595 265.001 56.7898H265.286V53.1818H270.357V75.3551C270.357 77.2206 269.911 78.7642 269.021 79.9858C268.131 81.2074 266.914 82.1212 265.371 82.7273C263.827 83.3333 262.075 83.6364 260.115 83.6364ZM260.158 70.6534C261.247 70.6534 262.175 70.3883 262.942 69.858C263.709 69.3277 264.291 68.5653 264.689 67.571C265.087 66.5767 265.286 65.3835 265.286 63.9915C265.286 62.6184 265.087 61.4157 264.689 60.3835C264.301 59.3513 263.723 58.5511 262.956 57.983C262.198 57.4053 261.266 57.1165 260.158 57.1165C259.012 57.1165 258.055 57.4148 257.288 58.0114C256.521 58.608 255.944 59.4271 255.555 60.4688C255.167 61.5009 254.973 62.6752 254.973 63.9915C254.973 65.3267 255.167 66.4962 255.555 67.5C255.953 68.4943 256.536 69.2708 257.303 69.8295C258.079 70.3788 259.031 70.6534 260.158 70.6534Z" fill="black"/>
<path d="M99.7273 18H95.2912V4.90909H99.8168C101.116 4.90909 102.233 5.17116 103.166 5.69531C104.104 6.2152 104.824 6.96307 105.327 7.93892C105.83 8.91477 106.081 10.0824 106.081 11.4418C106.081 12.8054 105.827 13.9773 105.32 14.9574C104.817 15.9375 104.091 16.6896 103.141 17.2138C102.195 17.7379 101.057 18 99.7273 18ZM97.6626 15.9482H99.6122C100.524 15.9482 101.285 15.782 101.894 15.4496C102.504 15.1129 102.962 14.6122 103.268 13.9474C103.575 13.2784 103.729 12.4432 103.729 11.4418C103.729 10.4403 103.575 9.60937 103.268 8.94886C102.962 8.28409 102.508 7.78764 101.907 7.45952C101.31 7.12713 100.569 6.96094 99.6825 6.96094H97.6626V15.9482ZM111.057 18.1982C110.435 18.1982 109.875 18.0874 109.376 17.8658C108.882 17.6399 108.49 17.3075 108.2 16.8686C107.914 16.4297 107.772 15.8885 107.772 15.245C107.772 14.6911 107.874 14.233 108.078 13.8707C108.283 13.5085 108.562 13.2188 108.916 13.0014C109.27 12.7841 109.668 12.62 110.111 12.5092C110.559 12.3942 111.021 12.3111 111.498 12.2599C112.074 12.2003 112.54 12.147 112.898 12.1001C113.256 12.049 113.516 11.9723 113.678 11.87C113.844 11.7635 113.927 11.5994 113.927 11.3778V11.3395C113.927 10.858 113.784 10.4851 113.499 10.2209C113.213 9.95668 112.802 9.82457 112.265 9.82457C111.699 9.82457 111.249 9.94815 110.917 10.1953C110.588 10.4425 110.367 10.7344 110.252 11.071L108.091 10.7642C108.262 10.1676 108.543 9.66903 108.935 9.26847C109.327 8.86364 109.806 8.56108 110.373 8.3608C110.94 8.15625 111.566 8.05398 112.252 8.05398C112.725 8.05398 113.196 8.10938 113.665 8.22017C114.134 8.33097 114.562 8.5142 114.95 8.76989C115.338 9.02131 115.649 9.36435 115.883 9.79901C116.122 10.2337 116.241 10.777 116.241 11.429V18H114.017V16.6513H113.94C113.799 16.924 113.601 17.1797 113.346 17.4183C113.094 17.6527 112.777 17.8423 112.393 17.9872C112.014 18.1278 111.569 18.1982 111.057 18.1982ZM111.658 16.4979C112.123 16.4979 112.525 16.4062 112.866 16.223C113.207 16.0355 113.469 15.7884 113.652 15.4815C113.84 15.1747 113.934 14.8402 113.934 14.478V13.321C113.861 13.3807 113.738 13.4361 113.563 13.4872C113.392 13.5384 113.201 13.5831 112.988 13.6214C112.775 13.6598 112.564 13.6939 112.355 13.7237C112.146 13.7536 111.965 13.7791 111.811 13.8004C111.466 13.8473 111.157 13.924 110.885 14.0305C110.612 14.1371 110.397 14.2862 110.239 14.478C110.081 14.6655 110.002 14.9084 110.002 15.2067C110.002 15.6328 110.158 15.9545 110.469 16.1719C110.78 16.3892 111.176 16.4979 111.658 16.4979ZM123.471 8.18182V9.97159H117.826V8.18182H123.471ZM119.22 5.82955H121.534V15.0469C121.534 15.358 121.581 15.5966 121.674 15.7628C121.772 15.9247 121.9 16.0355 122.058 16.0952C122.216 16.1548 122.39 16.1847 122.582 16.1847C122.727 16.1847 122.859 16.174 122.978 16.1527C123.102 16.1314 123.196 16.1122 123.26 16.0952L123.65 17.9041C123.526 17.9467 123.349 17.9936 123.119 18.0447C122.893 18.0959 122.616 18.1257 122.288 18.1342C121.708 18.1513 121.186 18.0639 120.722 17.8722C120.257 17.6761 119.889 17.3736 119.616 16.9645C119.348 16.5554 119.216 16.044 119.22 15.4304V5.82955ZM128.231 18.1982C127.609 18.1982 127.048 18.0874 126.55 17.8658C126.056 17.6399 125.664 17.3075 125.374 16.8686C125.088 16.4297 124.945 15.8885 124.945 15.245C124.945 14.6911 125.048 14.233 125.252 13.8707C125.457 13.5085 125.736 13.2188 126.09 13.0014C126.443 12.7841 126.842 12.62 127.285 12.5092C127.732 12.3942 128.195 12.3111 128.672 12.2599C129.247 12.2003 129.714 12.147 130.072 12.1001C130.43 12.049 130.69 11.9723 130.852 11.87C131.018 11.7635 131.101 11.5994 131.101 11.3778V11.3395C131.101 10.858 130.958 10.4851 130.673 10.2209C130.387 9.95668 129.976 9.82457 129.439 9.82457C128.872 9.82457 128.423 9.94815 128.09 10.1953C127.762 10.4425 127.541 10.7344 127.426 11.071L125.265 10.7642C125.436 10.1676 125.717 9.66903 126.109 9.26847C126.501 8.86364 126.98 8.56108 127.547 8.3608C128.114 8.15625 128.74 8.05398 129.426 8.05398C129.899 8.05398 130.37 8.10938 130.839 8.22017C131.308 8.33097 131.736 8.5142 132.124 8.76989C132.512 9.02131 132.823 9.36435 133.057 9.79901C133.296 10.2337 133.415 10.777 133.415 11.429V18H131.191V16.6513H131.114C130.973 16.924 130.775 17.1797 130.519 17.4183C130.268 17.6527 129.95 17.8423 129.567 17.9872C129.188 18.1278 128.742 18.1982 128.231 18.1982ZM128.832 16.4979C129.296 16.4979 129.699 16.4062 130.04 16.223C130.381 16.0355 130.643 15.7884 130.826 15.4815C131.014 15.1747 131.107 14.8402 131.107 14.478V13.321C131.035 13.3807 130.911 13.4361 130.737 13.4872C130.566 13.5384 130.374 13.5831 130.161 13.6214C129.948 13.6598 129.737 13.6939 129.529 13.7237C129.32 13.7536 129.139 13.7791 128.985 13.8004C128.64 13.8473 128.331 13.924 128.058 14.0305C127.786 14.1371 127.57 14.2862 127.413 14.478C127.255 14.6655 127.176 14.9084 127.176 15.2067C127.176 15.6328 127.332 15.9545 127.643 16.1719C127.954 16.3892 128.35 16.4979 128.832 16.4979ZM140.309 18V4.90909H145.218C146.224 4.90909 147.067 5.09659 147.749 5.47159C148.435 5.84659 148.953 6.36222 149.302 7.01847C149.656 7.67045 149.833 8.41193 149.833 9.2429C149.833 10.0824 149.656 10.8281 149.302 11.4801C148.949 12.1321 148.427 12.6456 147.736 13.0206C147.046 13.3913 146.196 13.5767 145.186 13.5767H141.932V11.6271H144.866C145.454 11.6271 145.936 11.5249 146.311 11.3203C146.686 11.1158 146.963 10.8345 147.142 10.4766C147.325 10.1186 147.417 9.70739 147.417 9.2429C147.417 8.77841 147.325 8.36932 147.142 8.01562C146.963 7.66193 146.684 7.38707 146.305 7.19105C145.93 6.99077 145.446 6.89062 144.854 6.89062H142.68V18H140.309ZM154.104 4.90909V18H151.79V4.90909H154.104ZM159.309 18.1982C158.687 18.1982 158.127 18.0874 157.628 17.8658C157.134 17.6399 156.742 17.3075 156.452 16.8686C156.166 16.4297 156.024 15.8885 156.024 15.245C156.024 14.6911 156.126 14.233 156.33 13.8707C156.535 13.5085 156.814 13.2188 157.168 13.0014C157.521 12.7841 157.92 12.62 158.363 12.5092C158.811 12.3942 159.273 12.3111 159.75 12.2599C160.325 12.2003 160.792 12.147 161.15 12.1001C161.508 12.049 161.768 11.9723 161.93 11.87C162.096 11.7635 162.179 11.5994 162.179 11.3778V11.3395C162.179 10.858 162.036 10.4851 161.751 10.2209C161.465 9.95668 161.054 9.82457 160.517 9.82457C159.95 9.82457 159.501 9.94815 159.169 10.1953C158.84 10.4425 158.619 10.7344 158.504 11.071L156.343 10.7642C156.514 10.1676 156.795 9.66903 157.187 9.26847C157.579 8.86364 158.058 8.56108 158.625 8.3608C159.192 8.15625 159.818 8.05398 160.504 8.05398C160.977 8.05398 161.448 8.10938 161.917 8.22017C162.386 8.33097 162.814 8.5142 163.202 8.76989C163.59 9.02131 163.901 9.36435 164.135 9.79901C164.374 10.2337 164.493 10.777 164.493 11.429V18H162.269V16.6513H162.192C162.051 16.924 161.853 17.1797 161.597 17.4183C161.346 17.6527 161.029 17.8423 160.645 17.9872C160.266 18.1278 159.82 18.1982 159.309 18.1982ZM159.91 16.4979C160.374 16.4979 160.777 16.4062 161.118 16.223C161.459 16.0355 161.721 15.7884 161.904 15.4815C162.092 15.1747 162.186 14.8402 162.186 14.478V13.321C162.113 13.3807 161.99 13.4361 161.815 13.4872C161.644 13.5384 161.453 13.5831 161.24 13.6214C161.026 13.6598 160.816 13.6939 160.607 13.7237C160.398 13.7536 160.217 13.7791 160.063 13.8004C159.718 13.8473 159.409 13.924 159.137 14.0305C158.864 14.1371 158.649 14.2862 158.491 14.478C158.333 14.6655 158.254 14.9084 158.254 15.2067C158.254 15.6328 158.41 15.9545 158.721 16.1719C159.032 16.3892 159.428 16.4979 159.91 16.4979ZM169.134 12.2472V18H166.82V8.18182H169.031V9.85014H169.146C169.372 9.30043 169.732 8.86364 170.227 8.53977C170.725 8.21591 171.341 8.05398 172.074 8.05398C172.752 8.05398 173.342 8.19886 173.845 8.48864C174.352 8.77841 174.744 9.19815 175.021 9.74787C175.302 10.2976 175.441 10.9645 175.436 11.7486V18H173.122V12.1065C173.122 11.4503 172.952 10.9368 172.611 10.5661C172.274 10.1953 171.808 10.0099 171.211 10.0099C170.806 10.0099 170.446 10.0994 170.131 10.2784C169.82 10.4531 169.575 10.7067 169.396 11.0391C169.221 11.3714 169.134 11.7741 169.134 12.2472ZM182.135 18.1918C181.151 18.1918 180.301 17.9872 179.585 17.5781C178.873 17.1648 178.325 16.581 177.942 15.8267C177.558 15.0682 177.367 14.1754 177.367 13.1484C177.367 12.1385 177.558 11.2521 177.942 10.4893C178.33 9.7223 178.871 9.12571 179.566 8.69957C180.26 8.26918 181.076 8.05398 182.014 8.05398C182.619 8.05398 183.19 8.15199 183.727 8.34801C184.268 8.53977 184.745 8.83807 185.159 9.2429C185.576 9.64773 185.904 10.1634 186.143 10.7898C186.382 11.4119 186.501 12.1534 186.501 13.0142V13.7237H178.453V12.1641H184.283C184.279 11.7209 184.183 11.3267 183.995 10.9815C183.808 10.6321 183.546 10.3572 183.209 10.157C182.877 9.95668 182.489 9.85653 182.046 9.85653C181.573 9.85653 181.157 9.97159 180.799 10.2017C180.441 10.4276 180.162 10.7259 179.962 11.0966C179.766 11.4631 179.666 11.8658 179.661 12.3047V13.6662C179.661 14.2372 179.766 14.7273 179.975 15.1364C180.183 15.5412 180.475 15.8523 180.85 16.0696C181.225 16.2827 181.664 16.3892 182.167 16.3892C182.504 16.3892 182.808 16.3423 183.081 16.2486C183.354 16.1506 183.59 16.0078 183.791 15.8203C183.991 15.6328 184.142 15.4006 184.244 15.1236L186.405 15.3665C186.269 15.9375 186.009 16.4361 185.625 16.8622C185.246 17.2841 184.76 17.6122 184.168 17.8466C183.575 18.0767 182.898 18.1918 182.135 18.1918Z" fill="black"/>
<path d="M26.706 43.6861C24.8437 43.6861 23.334 45.1958 23.3343 47.0578C23.3346 48.9204 24.844 50.4298 26.7063 50.4298C31.78 50.4298 35.9086 54.5584 35.9086 59.6321C35.9089 60.5632 36.2863 61.4066 36.8963 62.0167C37.5064 62.6267 38.3495 63.0044 39.2809 63.0044C41.1432 63.0044 42.6529 61.4947 42.6526 59.6327C42.6526 50.8395 35.4992 43.6861 26.706 43.6861Z" fill="white"/>
<path d="M26.7062 29.7094C24.844 29.7094 23.3342 31.2191 23.3346 33.0811C23.3349 34.9431 24.8436 36.4531 26.7066 36.4531C39.4875 36.4531 49.8858 46.8514 49.8855 59.632C49.8858 60.5632 50.2632 61.4066 50.8732 62.0166C51.4833 62.6267 52.3264 63.0044 53.2578 63.0044C55.1201 63.0044 56.6298 61.4946 56.6295 59.6327C56.6292 43.1332 43.2057 29.7097 26.7062 29.7094Z" fill="white"/>
<path d="M72.2277 59.6327C72.2277 34.5317 51.8069 14.1109 26.7063 14.1112C24.844 14.1112 23.3343 15.6209 23.3346 17.4829C23.3349 19.3455 24.8443 20.8549 26.7066 20.8549C37.0642 20.8546 46.8019 24.8885 54.126 32.2126C61.4502 39.5368 65.4838 49.2748 65.4837 59.6321C65.4841 60.5632 65.8614 61.4066 66.4715 62.0167C67.0815 62.6267 67.9246 63.0044 68.8561 63.0044C70.718 63.0047 72.2277 61.495 72.2277 59.6327Z" fill="white"/>
<path d="M23.4588 62.8798C24.9039 64.3249 27.247 64.3249 28.6921 62.8798C30.1372 61.4346 30.1372 59.0916 28.6921 57.6464C27.247 56.2013 24.9039 56.2013 23.4588 57.6464C22.0136 59.0916 22.0136 61.4346 23.4588 62.8798Z" fill="white"/>
</svg>
